<svg width="512" height="512" viewBox="0 0 512 512" fill="none" xmlns="http://www.w3.org/2000/svg">
<circle cx="256" cy="256" r="256" fill="white"/>
<path d="M163.565 128.943L330.717 130.345C341.989 130.44 353.133 132.754 363.511 137.155C373.89 141.556 383.3 147.959 391.204 155.997C399.108 164.034 405.351 173.55 409.578 184.001C413.804 194.452 415.931 205.633 415.836 216.905C415.742 228.178 413.428 239.322 409.027 249.7C404.626 260.079 398.223 269.488 390.185 277.392C382.148 285.297 372.632 291.54 362.181 295.767C351.73 299.993 340.549 302.12 329.277 302.025L243.462 301.305L244.22 210.95L162.883 210.267L163.565 128.943Z" fill="#053CFE"/>
<rect x="164" y="301" width="80" height="100" fill="#FFBA0C"/>
</svg>
