<svg width="512" height="512" viewBox="0 0 512 512" fill="none" xmlns="http://www.w3.org/2000/svg">
<circle cx="256" cy="256" r="256" fill="#053CFE"/>
<path d="M96 96H307.424C321.682 96 335.801 98.8084 348.974 104.265C362.147 109.721 374.117 117.719 384.199 127.801C394.281 137.883 402.279 149.853 407.735 163.026C413.192 176.199 416 190.318 416 204.576C416 218.834 413.192 232.953 407.735 246.126C402.279 259.299 394.281 271.269 384.199 281.351C374.117 291.433 362.147 299.431 348.974 304.887C335.801 310.344 321.682 313.152 307.424 313.152H198.88V198.864H96V96ZM198.864 313.152V416H96V313.152H198.864Z" fill="white"/>
</svg>
